<svg width="96" height="21" viewBox="0 0 96 21" fill="none" xmlns="http://www.w3.org/2000/svg">
<path d="M0.324 20.5V0.899999H8.808C10.5627 0.899999 12.0747 1.18933 13.344 1.768C14.6133 2.328 15.5933 3.14 16.284 4.204C16.9747 5.268 17.32 6.53733 17.32 8.012C17.32 9.468 16.9747 10.728 16.284 11.792C15.5933 12.856 14.6133 13.6773 13.344 14.256C12.0747 14.816 10.5627 15.096 8.808 15.096H2.844L4.86 13.052V20.5H0.324ZM4.86 13.556L2.844 11.4H8.556C9.956 11.4 11.0013 11.1013 11.692 10.504C12.3827 9.90667 12.728 9.076 12.728 8.012C12.728 6.92933 12.3827 6.08933 11.692 5.492C11.0013 4.89467 9.956 4.596 8.556 4.596H2.844L4.86 2.44V13.556ZM16.998 20.5L25.734 0.899999H30.214L38.978 20.5H34.218L27.05 3.196H28.842L21.646 20.5H16.998ZM21.366 16.3L22.57 12.856H32.65L33.882 16.3H21.366ZM41.0115 20.5V0.899999H49.4955C51.2502 0.899999 52.7622 1.18933 54.0315 1.768C55.3008 2.328 56.2808 3.14 56.9715 4.204C57.6622 5.268 58.0075 6.53733 58.0075 8.012C58.0075 9.468 57.6622 10.728 56.9715 11.792C56.2808 12.8373 55.3008 13.64 54.0315 14.2C52.7622 14.76 51.2502 15.04 49.4955 15.04H43.5315L45.5475 13.052V20.5H41.0115ZM53.4715 20.5L48.5715 13.388H53.4155L58.3715 20.5H53.4715ZM45.5475 13.556L43.5315 11.428H49.2435C50.6435 11.428 51.6888 11.1293 52.3795 10.532C53.0702 9.916 53.4155 9.076 53.4155 8.012C53.4155 6.92933 53.0702 6.08933 52.3795 5.492C51.6888 4.89467 50.6435 4.596 49.2435 4.596H43.5315L45.5475 2.44V13.556ZM65.3879 20.5V4.596H59.1159V0.899999H76.1959V4.596H69.9239V20.5H65.3879ZM83.1257 20.5V12.492L84.1617 15.236L75.5377 0.899999H80.3537L86.9617 11.904H84.1897L90.8257 0.899999H95.2777L86.6537 15.236L87.6617 12.492V20.5H83.1257Z" fill="#FF377B"/>
<a href="https://webthemez.com/demo/party-event-free-html-website-template/#body">
<rect fill="black" fill-opacity="0" y="-3.066" width="96.8577" height="34.132"/>
</a>
</svg>
